<svg xmlns="http://www.w3.org/2000/svg" xmlns:xlink="http://www.w3.org/1999/xlink" width="1724" height="378" viewBox="0 0 1724 378"><defs><style>.a{clip-path:url(#z);}.b{fill:url(#a);}.c{fill:url(#b);}.d{fill:url(#c);}.e{fill:url(#d);}.f{fill:url(#e);}.g{fill:url(#f);}.h{fill:url(#g);}.i{fill:url(#j);}.j{fill:url(#k);}.k{fill:url(#l);}.l{fill:url(#m);}.m{fill:url(#n);}.n{fill:url(#o);}.o{fill:url(#p);}.p{fill:url(#q);}.q{fill:url(#r);}.r{fill:url(#s);}.s{fill:url(#t);}.t{fill:url(#u);}.u{fill:url(#v);}.v{fill:url(#x);}.w{fill:#2ec4b6;}.x{fill:#ffbf69;}.y{fill:#fff;}</style><linearGradient id="a" x1="0.5" y1="0.489" x2="0.5" y2="1.018" gradientUnits="objectBoundingBox"><stop offset="0" stop-color="#ffbf69"/><stop offset="1" stop-color="#ff9f1c"/></linearGradient><linearGradient id="b" x1="0.581" y1="0.88" x2="0.387" y2="-0.099" gradientUnits="objectBoundingBox"><stop offset="0" stop-color="#e63950" stop-opacity="0"/><stop offset="0.047" stop-color="#ff9f1c" stop-opacity="0.047"/><stop offset="0.467" stop-color="#ff9f1c" stop-opacity="0.467"/><stop offset="0.799" stop-color="#ff9f1c" stop-opacity="0.8"/><stop offset="1" stop-color="#ff9f1c"/></linearGradient><linearGradient id="c" x1="0.381" y1="0.408" x2="0.857" y2="0.775" gradientUnits="objectBoundingBox"><stop offset="0" stop-color="#fce9cb"/><stop offset="1" stop-color="#ffbd95"/></linearGradient><linearGradient id="d" x1="0.381" y1="0.408" x2="0.857" y2="0.775" xlink:href="#c"/><linearGradient id="e" x1="0.259" y1="0.208" x2="0.691" y2="0.732" xlink:href="#c"/><linearGradient id="f" x1="0.313" y1="0.313" x2="0.961" y2="0.96" gradientUnits="objectBoundingBox"><stop offset="0" stop-color="#8a7889"/><stop offset="1" stop-color="#6e566e"/></linearGradient><linearGradient id="g" x1="0.49" y1="0.674" x2="1.216" y2="-0.675" gradientUnits="objectBoundingBox"><stop offset="0" stop-color="#6e566e" stop-opacity="0"/><stop offset="0.047" stop-color="#6e566e" stop-opacity="0.047"/><stop offset="1" stop-color="#6e566e"/></linearGradient><linearGradient id="j" x1="0.382" y1="0.492" x2="0.711" y2="0.869" xlink:href="#f"/><linearGradient id="k" x1="0.372" y1="0.316" x2="0.611" y2="0.754" gradientUnits="objectBoundingBox"><stop offset="0" stop-color="#6e566e" stop-opacity="0"/><stop offset="0.294" stop-color="#674d66" stop-opacity="0.294"/><stop offset="1" stop-color="#593b56"/></linearGradient><linearGradient id="l" x1="0.635" y1="0.502" x2="-0.247" y2="0.416" gradientUnits="objectBoundingBox"><stop offset="0" stop-color="#faa68e" stop-opacity="0"/><stop offset="1" stop-color="#c9766e"/></linearGradient><linearGradient id="m" x1="0.589" y1="0.328" x2="0.356" y2="0.778" gradientUnits="objectBoundingBox"><stop offset="0" stop-color="#edf5ff"/><stop offset="1" stop-color="#d5e8fe"/></linearGradient><linearGradient id="n" x1="0.447" y1="0.586" x2="0.315" y2="0.799" xlink:href="#m"/><linearGradient id="o" x1="-0.963" y1="0.328" x2="-1.196" y2="0.778" xlink:href="#m"/><linearGradient id="p" x1="-0.694" y1="0.586" x2="-0.825" y2="0.799" xlink:href="#m"/><linearGradient id="q" x1="0.5" y1="0.172" x2="0.5" y2="2.092" xlink:href="#l"/><linearGradient id="r" x1="0.404" y1="0.278" x2="0.564" y2="0.648" gradientUnits="objectBoundingBox"><stop offset="0" stop-color="#9ae1d3"/><stop offset="1" stop-color="#80d1c1"/></linearGradient><linearGradient id="s" x1="0.5" y1="0.197" x2="0.5" y2="0.045" gradientUnits="objectBoundingBox"><stop offset="0" stop-color="#0b799d" stop-opacity="0"/><stop offset="0.174" stop-color="#117d9e" stop-opacity="0.173"/><stop offset="0.414" stop-color="#2389a0" stop-opacity="0.416"/><stop offset="0.693" stop-color="#409ca3" stop-opacity="0.694"/><stop offset="0.999" stop-color="#69b7a8"/><stop offset="1" stop-color="#69b7a8"/></linearGradient><linearGradient id="t" x1="0.5" y1="0.047" x2="0.5" y2="0.637" xlink:href="#m"/><linearGradient id="u" x1="0.5" y1="0.437" x2="0.5" y2="1.154" xlink:href="#s"/><linearGradient id="v" x1="0.5" y1="0.247" x2="0.5" y2="-0.304" xlink:href="#s"/><linearGradient id="x" x1="0.5" y1="0.247" x2="0.5" y2="-0.304" xlink:href="#s"/><clipPath id="z"><rect width="1724" height="378"/></clipPath></defs><g id="y" class="a"><rect class="y" width="1724" height="378"/><g transform="translate(-103 -28)"><g transform="translate(130 50)"><path class="b" d="M324.7,427.443a15.341,15.341,0,0,1-10.173,25.469c-36.033,3.088-83.742,4.959-136.084,4.959-57.938,0-110.2-2.293-147.224-5.982-12.427-1.238-18.388-16.083-10.029-25.362l.189-.21a203.348,203.348,0,0,1,301.064-1.378q1.139,1.243,2.259,2.5Z" transform="translate(-17.304 -123.925)"/><path class="c" d="M367.541,427.443q-1.12-1.26-2.259-2.5A203.592,203.592,0,0,0,141.413,372.86c1.012,4.382,2.908,8.759,4.381,13.129,1.206,3.58,2.859,6.676,5.894,8.956L214.6,457.86q3.328.01,6.68.011c52.341,0,100.051-1.871,136.084-4.959A15.341,15.341,0,0,0,367.541,427.443Z" transform="translate(-60.147 -123.926)"/><g transform="translate(40.927 0)"><g transform="translate(3.464 132.07)"><path class="d" d="M105.09,253.573A19.993,19.993,0,0,1,85.1,233.579v-11.89a19.993,19.993,0,0,1,39.987,0V233.58A19.993,19.993,0,0,1,105.09,253.573Z" transform="translate(-85.097 -201.696)"/><path class="e" d="M383.828,253.573a19.993,19.993,0,0,1-19.994-19.993v-11.89a19.994,19.994,0,0,1,39.987,0V233.58A19.994,19.994,0,0,1,383.828,253.573Z" transform="translate(-181.319 -201.696)"/></g><path class="f" d="M205.741,300.44A92.868,92.868,0,0,0,298.6,211.022q1.161-32.107,0-64.228a92.922,92.922,0,0,0-185.711,0q-1.161,32.107,0,64.228A92.868,92.868,0,0,0,205.741,300.44Z" transform="translate(-91.026 -19.806)"/><g transform="translate(59.869 131.221)"><path class="g" d="M198.026,213.794A13.393,13.393,0,1,1,184.632,200.4,13.394,13.394,0,0,1,198.026,213.794Z" transform="translate(-171.239 -200.4)"/><path class="h" d="M191.369,202.557A13.4,13.4,0,0,1,173.4,220.53a13.4,13.4,0,1,0,17.972-17.973Z" transform="translate(-171.984 -201.145)"/><g transform="translate(82.906)"><path class="g" d="M324.638,213.794A13.393,13.393,0,1,1,311.245,200.4,13.393,13.393,0,0,1,324.638,213.794Z" transform="translate(-297.852 -200.4)"/><path class="h" d="M317.981,202.557a13.4,13.4,0,0,1-17.972,17.973,13.4,13.4,0,1,0,17.972-17.973Z" transform="translate(-298.597 -201.145)"/></g></g><g transform="translate(6.593 0)"><path class="i" d="M105.4,158.065l1.72-25.664A41.192,41.192,0,0,1,127.756,99.5a38.534,38.534,0,0,1,18.99-5.073h50.2a67.3,67.3,0,0,0,47.966-19.775l12.091,19.332a32.635,32.635,0,0,0,11.779,11.174,33.736,33.736,0,0,1,17.139,27.253l1.131,18.3a6.586,6.586,0,0,0,6.37,6.213,5.531,5.531,0,0,0,5.479-4.726l8.2-48.871a169.159,169.159,0,0,0,1.79-41.926c-1.706-20.65-21.989-35.827-42.46-32.245a113.291,113.291,0,0,0-96.619-27.23L139.8,7.524c-27.211,5.082-48.081,28.3-48.917,55.531l-.892,29.033a253.38,253.38,0,0,0,1.943,39.843l3.472,27.212a4.641,4.641,0,0,0,4.614,4.17A5.585,5.585,0,0,0,105.4,158.065Z" transform="translate(-89.876 0)"/><path class="j" d="M266.435,29.148a113.292,113.292,0,0,0-96.619-27.23L139.8,7.524c-27.211,5.082-48.081,28.3-48.917,55.531l-.892,29.033a253.366,253.366,0,0,0,1.944,39.843l3.472,27.212a4.641,4.641,0,0,0,4.614,4.17,5.586,5.586,0,0,0,5.382-5.248l1.72-25.664A41.192,41.192,0,0,1,127.756,99.5a38.534,38.534,0,0,1,18.99-5.073h50.2a67.3,67.3,0,0,0,47.966-19.775s-7.7-31.888,21.521-45.5Z" transform="translate(-89.875 0)"/></g><path class="k" d="M382.471,276.951q.517-14.291.564-28.59c-7.139,6.377-16.347,11.629-27.759,12.613,0,0,9.728,34.235,6.118,71.527A92.282,92.282,0,0,0,382.471,276.951Z" transform="translate(-174.901 -85.735)"/><g transform="translate(0 134.337)"><path class="l" d="M137.134,365.809h-.041c-7.4-.055-17.935-4-26.068-22.493a5.564,5.564,0,1,1,10.187-4.48c3.166,7.2,8.505,15.79,15.963,15.845a5.564,5.564,0,0,1-.04,11.128Z" transform="translate(-90.421 -250.157)"/><path class="m" d="M131.374,249.529h-.022c-15.587-.061-29.4-6.483-39.957-18.575a63.6,63.6,0,0,1-11.258-18.346,5.565,5.565,0,0,1,10.468-3.78,53.331,53.331,0,0,0,9.419,15.086c8.47,9.564,19.025,14.438,31.371,14.485a5.565,5.565,0,0,1-.021,11.13Z" transform="translate(-79.807 -205.159)"/><g transform="translate(172.3)"><path class="n" d="M355.919,365.809h.042c7.4-.055,17.934-4,26.068-22.493a5.565,5.565,0,0,0-10.188-4.48c-3.166,7.2-8.505,15.79-15.962,15.845a5.564,5.564,0,0,0,.04,11.128Z" transform="translate(-345.502 -250.157)"/><path class="o" d="M348.507,249.529h.022c15.588-.061,29.4-6.483,39.957-18.575a63.6,63.6,0,0,0,11.258-18.346,5.565,5.565,0,0,0-10.468-3.78,53.323,53.323,0,0,1-9.419,15.086c-8.469,9.564-19.025,14.438-31.371,14.485a5.565,5.565,0,0,0,.021,11.13Z" transform="translate(-342.943 -205.159)"/></g></g><path class="p" d="M249.566,293.638H238.108a15.443,15.443,0,0,1-15.354-17.094l5.991-55.689h30.185l5.99,55.689A15.442,15.442,0,0,1,249.566,293.638Z" transform="translate(-129.122 -76.24)"/><g transform="translate(37.009 159.216)"><path class="q" d="M284.685,262.09a19.5,19.5,0,0,0-14.587-12.6,266.028,266.028,0,0,0-112.128,0,19.5,19.5,0,0,0-14.587,12.6,128.67,128.67,0,0,0,0,84.036,19.5,19.5,0,0,0,14.587,12.6,266.044,266.044,0,0,0,112.128,0,19.5,19.5,0,0,0,14.587-12.6A128.671,128.671,0,0,0,284.685,262.09Z" transform="translate(-136.328 -243.28)"/><path class="r" d="M284.685,262.09a19.5,19.5,0,0,0-14.587-12.6,266.028,266.028,0,0,0-112.128,0,19.5,19.5,0,0,0-14.587,12.6,128.67,128.67,0,0,0,0,84.036,19.5,19.5,0,0,0,14.587,12.6,266.044,266.044,0,0,0,112.128,0,19.5,19.5,0,0,0,14.587-12.6A128.671,128.671,0,0,0,284.685,262.09Z" transform="translate(-136.328 -243.28)"/><path class="s" d="M149.463,262.73a319.867,319.867,0,0,1,134.819,0,25.252,25.252,0,0,1,3.3.946,1.2,1.2,0,0,0,1.547-1.505l-.009-.025A19.945,19.945,0,0,0,274.2,249.264a272.052,272.052,0,0,0-114.666,0,19.945,19.945,0,0,0-14.918,12.882c0,.008-.006.017-.008.025a1.2,1.2,0,0,0,1.547,1.505A25.2,25.2,0,0,1,149.463,262.73Z" transform="translate(-139.166 -243.154)"/><path class="t" d="M141.958,382.432q1.414,5.831,3.368,11.648a19.5,19.5,0,0,0,14.588,12.6,266.028,266.028,0,0,0,112.128,0,19.5,19.5,0,0,0,14.587-12.6q1.96-5.817,3.368-11.648H141.958Z" transform="translate(-138.272 -291.233)"/><path class="u" d="M270.1,374.046a19.5,19.5,0,0,0,14.587-12.6,128.332,128.332,0,0,0,4.8-65.771,370.157,370.157,0,0,0-150.911,0,128.338,128.338,0,0,0,4.8,65.771,19.5,19.5,0,0,0,14.587,12.6A266.035,266.035,0,0,0,270.1,374.046Z" transform="translate(-136.329 -258.603)"/><path class="u" d="M270.115,387.775a19.5,19.5,0,0,0,14.588-12.6,131.49,131.49,0,0,0,7.021-39.265,370.313,370.313,0,0,0-155.346,0,131.516,131.516,0,0,0,7.022,39.265,19.5,19.5,0,0,0,14.588,12.6A266.046,266.046,0,0,0,270.115,387.775Z" transform="translate(-136.345 -272.332)"/><path class="v" d="M272.006,402.589a19.5,19.5,0,0,0,14.587-12.6q2-5.948,3.435-11.91a370.07,370.07,0,0,0-148.172,0q1.434,5.962,3.435,11.91a19.5,19.5,0,0,0,14.588,12.6A266.037,266.037,0,0,0,272.006,402.589Z" transform="translate(-138.236 -287.146)"/></g></g></g><g transform="translate(596.447 89.273)"><g transform="translate(0 0)"><g transform="translate(0 14.847)"><path class="w" d="M2431.04,1190.843c-27.975-6.025-46.592-23.672-53.908-51.112-3.446-12.8-3.55-37.339-.109-50.037,5.7-20.982,18.615-37.446,35.834-45.624,13.772-6.672,20.552-8.071,38.091-8.071,12.376,0,16.571.43,23.458,2.367,13.666,3.874,22.81,9.147,32.068,18.4,14.31,14.312,20.337,30.883,20.337,56.061v12.913h-99.32l.646,5.81c1.292,12.913,9.146,21.092,21.952,22.812,9.9,1.292,23.566-4.842,25.609-11.514.644-1.936,1.938-2.045,25.932-2.045h25.182l-.649,3.014c-1.613,6.672-4.841,14.741-8.067,19.691-8.179,12.8-26.257,24-43.9,27.224C2463.106,1192.887,2440.725,1192.887,2431.04,1190.843Zm43.58-98.674a22.744,22.744,0,0,0-22.489-18.077c-11.406.108-19.8,6.994-22.812,18.831l-.646,2.691h46.7Z" transform="translate(-2132.977 -993.388)"/><path class="w" d="M130,737.92V640h66.284l10.545,27.762c25.287,66.176,33.357,86.3,34,85.545.323-.43,2.475-5.488,4.627-11.083,15.71-41.212,36.263-94.8,37.446-98.135L284.3,640h67.36V835.84H301.091V779.133c0-34.972-.43-56.277-.968-55.631-.538.538-10.76,25.5-22.7,55.631L255.79,833.688H224.907l-18.831-47.561c-10.438-26.256-20.337-51.22-21.951-55.416-1.614-4.3-3.336-7.855-3.766-7.855-.538,0-.861,25.395-.861,56.492V835.84H130Z" transform="translate(-130 -640)"/></g><g transform="translate(417.545)"><path class="x" d="M6394.085,1273.7l-4.085-.43V1234.85l7.962-.431c6.675-.322,8.5-.752,10.76-2.9l2.8-2.583V1070h56.067l-.326,84.792-.326,84.685-3.443,7.1c-6.022,12.267-18.62,21.521-33.895,25.179C6422.5,1273.372,6401.083,1274.556,6394.085,1273.7Z" transform="translate(-6197.498 -1008.883)"/><path class="x" d="M7343.544,1221.614c-19.69-3.335-35.075-16.355-41.427-35.294-2.366-6.886-2.473-8.5-2.795-61.657L7299,1070h56.064v44.44c0,27.117.426,45.84,1.071,48.315,2.476,8.932,9.795,14.1,19.91,14.2s17.105-5.273,19.9-15.389c.646-2.259,1.078-21.628,1.078-47.668V1070h55.958v149.57H7398.1v-29.591l-3.656,7.532c-4.951,10.007-9.9,15.6-17.545,19.691C7367.544,1222.153,7356.029,1223.658,7343.544,1221.614Z" transform="translate(-7008.684 -1008.883)"/><path class="x" d="M8930.275,836.808c-8.828-1.721-19.693-7.963-26.482-15.279-11.084-11.729-16.672-26.471-18.719-49.39-3.547-38.631,9.043-70.8,32.174-82.425,9.154-4.519,16.9-5.918,29.912-5.38,9.693.43,11.836.861,18.289,4.089,8.832,4.3,16.68,12.052,20.238,19.584l2.684,5.7V640h55.969V835.84h-55.969V809.477L8986.215,814c-2.682,6.026-11.285,14.526-18.176,17.97C8957.494,837.346,8942.76,839.283,8930.275,836.808Zm43.576-43.9c4.842-2.152,9.795-7.425,11.949-12.7,2.783-6.563,3.861-17.862,2.57-26.9-2.357-17.325-10-26.148-22.807-26.148-7.646,0-11.193,1.722-16.244,7.532-5.482,6.457-7.533,15.172-7,29.161.654,16.249,4.842,24.641,14.311,29.053A20.11,20.11,0,0,0,8973.852,792.906Z" transform="translate(-8423.56 -625.153)"/><path class="x" d="M10551.251,1191.088c-7.859-1.506-18.08-6.993-24.436-13.019-18.066-17-18.932-44.764-1.824-61.336,12.592-12.158,26.9-15.924,71.783-18.723l11.725-.753-.652-5.595c-.865-8.286-3.227-12.16-9.043-14.743-10.215-4.519-24.309-.215-27.324,8.286l-1.4,3.766h-49.822l.857-6.457c2.9-20.66,19.053-36.369,44.553-43.149,7.094-1.937,11.619-2.366,26.365-2.366,19.91,0,28.947,1.721,41.963,8.069,9.789,4.735,21.4,16.464,24.861,25.072l2.582,6.456.313,56.815.326,56.708h-53.908v-20.767l-6.035,6.671C10590.306,1189.045,10570.622,1194.963,10551.251,1191.088Zm43.041-38.091c9.15-3.228,13.881-10.331,13.881-20.661v-4.626h-3.979c-10.867.215-26.039,2.043-29.174,3.658-9.35,4.842-9.25,17.539.113,21.629C10579.759,1155.042,10588.589,1155.042,10594.292,1153Z" transform="translate(-9876.568 -979.433)"/><path class="x" d="M4603.587,828.092c4.084-12.59,35.935-109.971,49.17-150.647L4664.916,640h72.525L4751,681.643c7.533,23.027,21.522,65.962,31.207,95.553s17.865,54.878,18.295,56.277l.644,2.367h-61.333l-.97-3.444c-.537-1.937-2.8-10.653-5.058-19.369L4729.7,797.1h-59.614l-2.905,11.083c-1.611,6.026-3.98,14.742-5.167,19.369l-2.151,8.285H4601Zm112.979-81.242c-1.4-5.272-5.484-20.875-9.148-34.756s-6.993-25.718-7.314-26.255c-.647-1.076-.754-.646-11.511,40.244-3.982,15.065-7.54,28.084-7.749,28.838-.435.968,3.767,1.291,18.831,1.291h19.476Z" transform="translate(-4601 -625.153)"/><path class="x" d="M6618.588,553.345c-5.277-1.506-13.555-8.932-16.03-14.419-2.479-5.381-2.7-15.28-.326-20.768,7.427-17.755,33.143-21.844,46.488-7.317,4.734,5.165,6.668,10.33,6.668,18.185,0,9.361-5.486,17.862-14.523,22.489C6635.914,554.1,6624.611,555.066,6618.588,553.345Z" transform="translate(-6385.409 -502.02)"/></g></g></g></g></g></svg>